<?xml version="1.0" encoding="utf-8" standalone="no"?>
<!DOCTYPE svg PUBLIC "-//W3C//DTD SVG 1.1//EN"
  "http://www.w3.org/Graphics/SVG/1.1/DTD/svg11.dtd">
<!-- Created with matplotlib (https://matplotlib.org/) -->
<svg height="180pt" version="1.1" viewBox="0 0 360 180" width="360pt" xmlns="http://www.w3.org/2000/svg" xmlns:xlink="http://www.w3.org/1999/xlink">
 <defs>
  <style type="text/css">
*{stroke-linecap:butt;stroke-linejoin:round;}
  </style>
 </defs>
 <g id="figure_1">
  <g id="patch_1">
   <path d="M 0 180 
L 360 180 
L 360 0 
L 0 0 
z
" style="fill:#ffffff;"/>
  </g>
  <g id="axes_1">
   <g id="patch_2">
    <path d="M 46.64 139.12 
L 342.36 139.12 
L 342.36 13.68 
L 46.64 13.68 
z
" style="fill:#ffffff;"/>
   </g>
   <g id="matplotlib.axis_1">
    <g id="xtick_1">
     <g id="line2d_1">
      <defs>
       <path d="M 0 0 
L 0 3.5 
" id="mdf9b59e551" style="stroke:#000000;stroke-width:0.8;"/>
      </defs>
      <g>
       <use style="stroke:#000000;stroke-width:0.8;" x="46.64" xlink:href="#mdf9b59e551" y="139.12"/>
      </g>
     </g>
     <g id="text_1">
      <!-- 0 -->
      <defs>
       <path d="M 31.78125 66.40625 
Q 24.171875 66.40625 20.328125 58.90625 
Q 16.5 51.421875 16.5 36.375 
Q 16.5 21.390625 20.328125 13.890625 
Q 24.171875 6.390625 31.78125 6.390625 
Q 39.453125 6.390625 43.28125 13.890625 
Q 47.125 21.390625 47.125 36.375 
Q 47.125 51.421875 43.28125 58.90625 
Q 39.453125 66.40625 31.78125 66.40625 
z
M 31.78125 74.21875 
Q 44.046875 74.21875 50.515625 64.515625 
Q 56.984375 54.828125 56.984375 36.375 
Q 56.984375 17.96875 50.515625 8.265625 
Q 44.046875 -1.421875 31.78125 -1.421875 
Q 19.53125 -1.421875 13.0625 8.265625 
Q 6.59375 17.96875 6.59375 36.375 
Q 6.59375 54.828125 13.0625 64.515625 
Q 19.53125 74.21875 31.78125 74.21875 
z
" id="DejaVuSans-48"/>
      </defs>
      <g transform="translate(43.45875 153.718438)scale(0.1 -0.1)">
       <use xlink:href="#DejaVuSans-48"/>
      </g>
     </g>
    </g>
    <g id="xtick_2">
     <g id="line2d_2">
      <g>
       <use style="stroke:#000000;stroke-width:0.8;" x="83.605" xlink:href="#mdf9b59e551" y="139.12"/>
      </g>
     </g>
     <g id="text_2">
      <!-- 1 -->
      <defs>
       <path d="M 12.40625 8.296875 
L 28.515625 8.296875 
L 28.515625 63.921875 
L 10.984375 60.40625 
L 10.984375 69.390625 
L 28.421875 72.90625 
L 38.28125 72.90625 
L 38.28125 8.296875 
L 54.390625 8.296875 
L 54.390625 0 
L 12.40625 0 
z
" id="DejaVuSans-49"/>
      </defs>
      <g transform="translate(80.42375 153.718438)scale(0.1 -0.1)">
       <use xlink:href="#DejaVuSans-49"/>
      </g>
     </g>
    </g>
    <g id="xtick_3">
     <g id="line2d_3">
      <g>
       <use style="stroke:#000000;stroke-width:0.8;" x="120.57" xlink:href="#mdf9b59e551" y="139.12"/>
      </g>
     </g>
     <g id="text_3">
      <!-- 2 -->
      <defs>
       <path d="M 19.1875 8.296875 
L 53.609375 8.296875 
L 53.609375 0 
L 7.328125 0 
L 7.328125 8.296875 
Q 12.9375 14.109375 22.625 23.890625 
Q 32.328125 33.6875 34.8125 36.53125 
Q 39.546875 41.84375 41.421875 45.53125 
Q 43.3125 49.21875 43.3125 52.78125 
Q 43.3125 58.59375 39.234375 62.25 
Q 35.15625 65.921875 28.609375 65.921875 
Q 23.96875 65.921875 18.8125 64.3125 
Q 13.671875 62.703125 7.8125 59.421875 
L 7.8125 69.390625 
Q 13.765625 71.78125 18.9375 73 
Q 24.125 74.21875 28.421875 74.21875 
Q 39.75 74.21875 46.484375 68.546875 
Q 53.21875 62.890625 53.21875 53.421875 
Q 53.21875 48.921875 51.53125 44.890625 
Q 49.859375 40.875 45.40625 35.40625 
Q 44.1875 33.984375 37.640625 27.21875 
Q 31.109375 20.453125 19.1875 8.296875 
z
" id="DejaVuSans-50"/>
      </defs>
      <g transform="translate(117.38875 153.718438)scale(0.1 -0.1)">
       <use xlink:href="#DejaVuSans-50"/>
      </g>
     </g>
    </g>
    <g id="xtick_4">
     <g id="line2d_4">
      <g>
       <use style="stroke:#000000;stroke-width:0.8;" x="157.535" xlink:href="#mdf9b59e551" y="139.12"/>
      </g>
     </g>
     <g id="text_4">
      <!-- 3 -->
      <defs>
       <path d="M 40.578125 39.3125 
Q 47.65625 37.796875 51.625 33 
Q 55.609375 28.21875 55.609375 21.1875 
Q 55.609375 10.40625 48.1875 4.484375 
Q 40.765625 -1.421875 27.09375 -1.421875 
Q 22.515625 -1.421875 17.65625 -0.515625 
Q 12.796875 0.390625 7.625 2.203125 
L 7.625 11.71875 
Q 11.71875 9.328125 16.59375 8.109375 
Q 21.484375 6.890625 26.8125 6.890625 
Q 36.078125 6.890625 40.9375 10.546875 
Q 45.796875 14.203125 45.796875 21.1875 
Q 45.796875 27.640625 41.28125 31.265625 
Q 36.765625 34.90625 28.71875 34.90625 
L 20.21875 34.90625 
L 20.21875 43.015625 
L 29.109375 43.015625 
Q 36.375 43.015625 40.234375 45.921875 
Q 44.09375 48.828125 44.09375 54.296875 
Q 44.09375 59.90625 40.109375 62.90625 
Q 36.140625 65.921875 28.71875 65.921875 
Q 24.65625 65.921875 20.015625 65.03125 
Q 15.375 64.15625 9.8125 62.3125 
L 9.8125 71.09375 
Q 15.4375 72.65625 20.34375 73.4375 
Q 25.25 74.21875 29.59375 74.21875 
Q 40.828125 74.21875 47.359375 69.109375 
Q 53.90625 64.015625 53.90625 55.328125 
Q 53.90625 49.265625 50.4375 45.09375 
Q 46.96875 40.921875 40.578125 39.3125 
z
" id="DejaVuSans-51"/>
      </defs>
      <g transform="translate(154.35375 153.718438)scale(0.1 -0.1)">
       <use xlink:href="#DejaVuSans-51"/>
      </g>
     </g>
    </g>
    <g id="xtick_5">
     <g id="line2d_5">
      <g>
       <use style="stroke:#000000;stroke-width:0.8;" x="194.5" xlink:href="#mdf9b59e551" y="139.12"/>
      </g>
     </g>
     <g id="text_5">
      <!-- 4 -->
      <defs>
       <path d="M 37.796875 64.3125 
L 12.890625 25.390625 
L 37.796875 25.390625 
z
M 35.203125 72.90625 
L 47.609375 72.90625 
L 47.609375 25.390625 
L 58.015625 25.390625 
L 58.015625 17.1875 
L 47.609375 17.1875 
L 47.609375 0 
L 37.796875 0 
L 37.796875 17.1875 
L 4.890625 17.1875 
L 4.890625 26.703125 
z
" id="DejaVuSans-52"/>
      </defs>
      <g transform="translate(191.31875 153.718438)scale(0.1 -0.1)">
       <use xlink:href="#DejaVuSans-52"/>
      </g>
     </g>
    </g>
    <g id="xtick_6">
     <g id="line2d_6">
      <g>
       <use style="stroke:#000000;stroke-width:0.8;" x="231.465" xlink:href="#mdf9b59e551" y="139.12"/>
      </g>
     </g>
     <g id="text_6">
      <!-- 5 -->
      <defs>
       <path d="M 10.796875 72.90625 
L 49.515625 72.90625 
L 49.515625 64.59375 
L 19.828125 64.59375 
L 19.828125 46.734375 
Q 21.96875 47.46875 24.109375 47.828125 
Q 26.265625 48.1875 28.421875 48.1875 
Q 40.625 48.1875 47.75 41.5 
Q 54.890625 34.8125 54.890625 23.390625 
Q 54.890625 11.625 47.5625 5.09375 
Q 40.234375 -1.421875 26.90625 -1.421875 
Q 22.3125 -1.421875 17.546875 -0.640625 
Q 12.796875 0.140625 7.71875 1.703125 
L 7.71875 11.625 
Q 12.109375 9.234375 16.796875 8.0625 
Q 21.484375 6.890625 26.703125 6.890625 
Q 35.15625 6.890625 40.078125 11.328125 
Q 45.015625 15.765625 45.015625 23.390625 
Q 45.015625 31 40.078125 35.4375 
Q 35.15625 39.890625 26.703125 39.890625 
Q 22.75 39.890625 18.8125 39.015625 
Q 14.890625 38.140625 10.796875 36.28125 
z
" id="DejaVuSans-53"/>
      </defs>
      <g transform="translate(228.28375 153.718438)scale(0.1 -0.1)">
       <use xlink:href="#DejaVuSans-53"/>
      </g>
     </g>
    </g>
    <g id="xtick_7">
     <g id="line2d_7">
      <g>
       <use style="stroke:#000000;stroke-width:0.8;" x="268.43" xlink:href="#mdf9b59e551" y="139.12"/>
      </g>
     </g>
     <g id="text_7">
      <!-- 6 -->
      <defs>
       <path d="M 33.015625 40.375 
Q 26.375 40.375 22.484375 35.828125 
Q 18.609375 31.296875 18.609375 23.390625 
Q 18.609375 15.53125 22.484375 10.953125 
Q 26.375 6.390625 33.015625 6.390625 
Q 39.65625 6.390625 43.53125 10.953125 
Q 47.40625 15.53125 47.40625 23.390625 
Q 47.40625 31.296875 43.53125 35.828125 
Q 39.65625 40.375 33.015625 40.375 
z
M 52.59375 71.296875 
L 52.59375 62.3125 
Q 48.875 64.0625 45.09375 64.984375 
Q 41.3125 65.921875 37.59375 65.921875 
Q 27.828125 65.921875 22.671875 59.328125 
Q 17.53125 52.734375 16.796875 39.40625 
Q 19.671875 43.65625 24.015625 45.921875 
Q 28.375 48.1875 33.59375 48.1875 
Q 44.578125 48.1875 50.953125 41.515625 
Q 57.328125 34.859375 57.328125 23.390625 
Q 57.328125 12.15625 50.6875 5.359375 
Q 44.046875 -1.421875 33.015625 -1.421875 
Q 20.359375 -1.421875 13.671875 8.265625 
Q 6.984375 17.96875 6.984375 36.375 
Q 6.984375 53.65625 15.1875 63.9375 
Q 23.390625 74.21875 37.203125 74.21875 
Q 40.921875 74.21875 44.703125 73.484375 
Q 48.484375 72.75 52.59375 71.296875 
z
" id="DejaVuSans-54"/>
      </defs>
      <g transform="translate(265.24875 153.718438)scale(0.1 -0.1)">
       <use xlink:href="#DejaVuSans-54"/>
      </g>
     </g>
    </g>
    <g id="xtick_8">
     <g id="line2d_8">
      <g>
       <use style="stroke:#000000;stroke-width:0.8;" x="305.395" xlink:href="#mdf9b59e551" y="139.12"/>
      </g>
     </g>
     <g id="text_8">
      <!-- 7 -->
      <defs>
       <path d="M 8.203125 72.90625 
L 55.078125 72.90625 
L 55.078125 68.703125 
L 28.609375 0 
L 18.3125 0 
L 43.21875 64.59375 
L 8.203125 64.59375 
z
" id="DejaVuSans-55"/>
      </defs>
      <g transform="translate(302.21375 153.718438)scale(0.1 -0.1)">
       <use xlink:href="#DejaVuSans-55"/>
      </g>
     </g>
    </g>
    <g id="xtick_9">
     <g id="line2d_9">
      <g>
       <use style="stroke:#000000;stroke-width:0.8;" x="342.36" xlink:href="#mdf9b59e551" y="139.12"/>
      </g>
     </g>
     <g id="text_9">
      <!-- 8 -->
      <defs>
       <path d="M 31.78125 34.625 
Q 24.75 34.625 20.71875 30.859375 
Q 16.703125 27.09375 16.703125 20.515625 
Q 16.703125 13.921875 20.71875 10.15625 
Q 24.75 6.390625 31.78125 6.390625 
Q 38.8125 6.390625 42.859375 10.171875 
Q 46.921875 13.96875 46.921875 20.515625 
Q 46.921875 27.09375 42.890625 30.859375 
Q 38.875 34.625 31.78125 34.625 
z
M 21.921875 38.8125 
Q 15.578125 40.375 12.03125 44.71875 
Q 8.5 49.078125 8.5 55.328125 
Q 8.5 64.0625 14.71875 69.140625 
Q 20.953125 74.21875 31.78125 74.21875 
Q 42.671875 74.21875 48.875 69.140625 
Q 55.078125 64.0625 55.078125 55.328125 
Q 55.078125 49.078125 51.53125 44.71875 
Q 48 40.375 41.703125 38.8125 
Q 48.828125 37.15625 52.796875 32.3125 
Q 56.78125 27.484375 56.78125 20.515625 
Q 56.78125 9.90625 50.3125 4.234375 
Q 43.84375 -1.421875 31.78125 -1.421875 
Q 19.734375 -1.421875 13.25 4.234375 
Q 6.78125 9.90625 6.78125 20.515625 
Q 6.78125 27.484375 10.78125 32.3125 
Q 14.796875 37.15625 21.921875 38.8125 
z
M 18.3125 54.390625 
Q 18.3125 48.734375 21.84375 45.5625 
Q 25.390625 42.390625 31.78125 42.390625 
Q 38.140625 42.390625 41.71875 45.5625 
Q 45.3125 48.734375 45.3125 54.390625 
Q 45.3125 60.0625 41.71875 63.234375 
Q 38.140625 66.40625 31.78125 66.40625 
Q 25.390625 66.40625 21.84375 63.234375 
Q 18.3125 60.0625 18.3125 54.390625 
z
" id="DejaVuSans-56"/>
      </defs>
      <g transform="translate(339.17875 153.718438)scale(0.1 -0.1)">
       <use xlink:href="#DejaVuSans-56"/>
      </g>
     </g>
    </g>
    <g id="text_10">
     <!-- Position -->
     <defs>
      <path d="M 19.671875 64.796875 
L 19.671875 37.40625 
L 32.078125 37.40625 
Q 38.96875 37.40625 42.71875 40.96875 
Q 46.484375 44.53125 46.484375 51.125 
Q 46.484375 57.671875 42.71875 61.234375 
Q 38.96875 64.796875 32.078125 64.796875 
z
M 9.8125 72.90625 
L 32.078125 72.90625 
Q 44.34375 72.90625 50.609375 67.359375 
Q 56.890625 61.8125 56.890625 51.125 
Q 56.890625 40.328125 50.609375 34.8125 
Q 44.34375 29.296875 32.078125 29.296875 
L 19.671875 29.296875 
L 19.671875 0 
L 9.8125 0 
z
" id="DejaVuSans-80"/>
      <path d="M 30.609375 48.390625 
Q 23.390625 48.390625 19.1875 42.75 
Q 14.984375 37.109375 14.984375 27.296875 
Q 14.984375 17.484375 19.15625 11.84375 
Q 23.34375 6.203125 30.609375 6.203125 
Q 37.796875 6.203125 41.984375 11.859375 
Q 46.1875 17.53125 46.1875 27.296875 
Q 46.1875 37.015625 41.984375 42.703125 
Q 37.796875 48.390625 30.609375 48.390625 
z
M 30.609375 56 
Q 42.328125 56 49.015625 48.375 
Q 55.71875 40.765625 55.71875 27.296875 
Q 55.71875 13.875 49.015625 6.21875 
Q 42.328125 -1.421875 30.609375 -1.421875 
Q 18.84375 -1.421875 12.171875 6.21875 
Q 5.515625 13.875 5.515625 27.296875 
Q 5.515625 40.765625 12.171875 48.375 
Q 18.84375 56 30.609375 56 
z
" id="DejaVuSans-111"/>
      <path d="M 44.28125 53.078125 
L 44.28125 44.578125 
Q 40.484375 46.53125 36.375 47.5 
Q 32.28125 48.484375 27.875 48.484375 
Q 21.1875 48.484375 17.84375 46.4375 
Q 14.5 44.390625 14.5 40.28125 
Q 14.5 37.15625 16.890625 35.375 
Q 19.28125 33.59375 26.515625 31.984375 
L 29.59375 31.296875 
Q 39.15625 29.25 43.1875 25.515625 
Q 47.21875 21.78125 47.21875 15.09375 
Q 47.21875 7.46875 41.1875 3.015625 
Q 35.15625 -1.421875 24.609375 -1.421875 
Q 20.21875 -1.421875 15.453125 -0.5625 
Q 10.6875 0.296875 5.421875 2 
L 5.421875 11.28125 
Q 10.40625 8.6875 15.234375 7.390625 
Q 20.0625 6.109375 24.8125 6.109375 
Q 31.15625 6.109375 34.5625 8.28125 
Q 37.984375 10.453125 37.984375 14.40625 
Q 37.984375 18.0625 35.515625 20.015625 
Q 33.0625 21.96875 24.703125 23.78125 
L 21.578125 24.515625 
Q 13.234375 26.265625 9.515625 29.90625 
Q 5.8125 33.546875 5.8125 39.890625 
Q 5.8125 47.609375 11.28125 51.796875 
Q 16.75 56 26.8125 56 
Q 31.78125 56 36.171875 55.265625 
Q 40.578125 54.546875 44.28125 53.078125 
z
" id="DejaVuSans-115"/>
      <path d="M 9.421875 54.6875 
L 18.40625 54.6875 
L 18.40625 0 
L 9.421875 0 
z
M 9.421875 75.984375 
L 18.40625 75.984375 
L 18.40625 64.59375 
L 9.421875 64.59375 
z
" id="DejaVuSans-105"/>
      <path d="M 18.3125 70.21875 
L 18.3125 54.6875 
L 36.8125 54.6875 
L 36.8125 47.703125 
L 18.3125 47.703125 
L 18.3125 18.015625 
Q 18.3125 11.328125 20.140625 9.421875 
Q 21.96875 7.515625 27.59375 7.515625 
L 36.8125 7.515625 
L 36.8125 0 
L 27.59375 0 
Q 17.1875 0 13.234375 3.875 
Q 9.28125 7.765625 9.28125 18.015625 
L 9.28125 47.703125 
L 2.6875 47.703125 
L 2.6875 54.6875 
L 9.28125 54.6875 
L 9.28125 70.21875 
z
" id="DejaVuSans-116"/>
      <path d="M 54.890625 33.015625 
L 54.890625 0 
L 45.90625 0 
L 45.90625 32.71875 
Q 45.90625 40.484375 42.875 44.328125 
Q 39.84375 48.1875 33.796875 48.1875 
Q 26.515625 48.1875 22.3125 43.546875 
Q 18.109375 38.921875 18.109375 30.90625 
L 18.109375 0 
L 9.078125 0 
L 9.078125 54.6875 
L 18.109375 54.6875 
L 18.109375 46.1875 
Q 21.34375 51.125 25.703125 53.5625 
Q 30.078125 56 35.796875 56 
Q 45.21875 56 50.046875 50.171875 
Q 54.890625 44.34375 54.890625 33.015625 
z
" id="DejaVuSans-110"/>
     </defs>
     <g transform="translate(174.857031 167.396563)scale(0.1 -0.1)">
      <use xlink:href="#DejaVuSans-80"/>
      <use x="60.255859" xlink:href="#DejaVuSans-111"/>
      <use x="121.4375" xlink:href="#DejaVuSans-115"/>
      <use x="173.537109" xlink:href="#DejaVuSans-105"/>
      <use x="201.320312" xlink:href="#DejaVuSans-116"/>
      <use x="240.529297" xlink:href="#DejaVuSans-105"/>
      <use x="268.3125" xlink:href="#DejaVuSans-111"/>
      <use x="329.494141" xlink:href="#DejaVuSans-110"/>
     </g>
    </g>
   </g>
   <g id="matplotlib.axis_2">
    <g id="ytick_1">
     <g id="line2d_10">
      <defs>
       <path d="M 0 0 
L -3.5 0 
" id="mc75f2cbbd1" style="stroke:#000000;stroke-width:0.8;"/>
      </defs>
      <g>
       <use style="stroke:#000000;stroke-width:0.8;" x="46.64" xlink:href="#mc75f2cbbd1" y="139.12"/>
      </g>
     </g>
     <g id="text_11">
      <!-- −3 -->
      <defs>
       <path d="M 10.59375 35.5 
L 73.1875 35.5 
L 73.1875 27.203125 
L 10.59375 27.203125 
z
" id="DejaVuSans-8722"/>
      </defs>
      <g transform="translate(24.897813 142.919219)scale(0.1 -0.1)">
       <use xlink:href="#DejaVuSans-8722"/>
       <use x="83.789062" xlink:href="#DejaVuSans-51"/>
      </g>
     </g>
    </g>
    <g id="ytick_2">
     <g id="line2d_11">
      <g>
       <use style="stroke:#000000;stroke-width:0.8;" x="46.64" xlink:href="#mc75f2cbbd1" y="118.213333"/>
      </g>
     </g>
     <g id="text_12">
      <!-- −2 -->
      <g transform="translate(24.897813 122.012552)scale(0.1 -0.1)">
       <use xlink:href="#DejaVuSans-8722"/>
       <use x="83.789062" xlink:href="#DejaVuSans-50"/>
      </g>
     </g>
    </g>
    <g id="ytick_3">
     <g id="line2d_12">
      <g>
       <use style="stroke:#000000;stroke-width:0.8;" x="46.64" xlink:href="#mc75f2cbbd1" y="97.306667"/>
      </g>
     </g>
     <g id="text_13">
      <!-- −1 -->
      <g transform="translate(24.897813 101.105885)scale(0.1 -0.1)">
       <use xlink:href="#DejaVuSans-8722"/>
       <use x="83.789062" xlink:href="#DejaVuSans-49"/>
      </g>
     </g>
    </g>
    <g id="ytick_4">
     <g id="line2d_13">
      <g>
       <use style="stroke:#000000;stroke-width:0.8;" x="46.64" xlink:href="#mc75f2cbbd1" y="76.4"/>
      </g>
     </g>
     <g id="text_14">
      <!-- 0 -->
      <g transform="translate(33.2775 80.199219)scale(0.1 -0.1)">
       <use xlink:href="#DejaVuSans-48"/>
      </g>
     </g>
    </g>
    <g id="ytick_5">
     <g id="line2d_14">
      <g>
       <use style="stroke:#000000;stroke-width:0.8;" x="46.64" xlink:href="#mc75f2cbbd1" y="55.493333"/>
      </g>
     </g>
     <g id="text_15">
      <!-- 1 -->
      <g transform="translate(33.2775 59.292552)scale(0.1 -0.1)">
       <use xlink:href="#DejaVuSans-49"/>
      </g>
     </g>
    </g>
    <g id="ytick_6">
     <g id="line2d_15">
      <g>
       <use style="stroke:#000000;stroke-width:0.8;" x="46.64" xlink:href="#mc75f2cbbd1" y="34.586667"/>
      </g>
     </g>
     <g id="text_16">
      <!-- 2 -->
      <g transform="translate(33.2775 38.385885)scale(0.1 -0.1)">
       <use xlink:href="#DejaVuSans-50"/>
      </g>
     </g>
    </g>
    <g id="ytick_7">
     <g id="line2d_16">
      <g>
       <use style="stroke:#000000;stroke-width:0.8;" x="46.64" xlink:href="#mc75f2cbbd1" y="13.68"/>
      </g>
     </g>
     <g id="text_17">
      <!-- 3 -->
      <g transform="translate(33.2775 17.479219)scale(0.1 -0.1)">
       <use xlink:href="#DejaVuSans-51"/>
      </g>
     </g>
    </g>
    <g id="text_18">
     <!-- Temperatrue -->
     <defs>
      <path d="M -0.296875 72.90625 
L 61.375 72.90625 
L 61.375 64.59375 
L 35.5 64.59375 
L 35.5 0 
L 25.59375 0 
L 25.59375 64.59375 
L -0.296875 64.59375 
z
" id="DejaVuSans-84"/>
      <path d="M 56.203125 29.59375 
L 56.203125 25.203125 
L 14.890625 25.203125 
Q 15.484375 15.921875 20.484375 11.0625 
Q 25.484375 6.203125 34.421875 6.203125 
Q 39.59375 6.203125 44.453125 7.46875 
Q 49.3125 8.734375 54.109375 11.28125 
L 54.109375 2.78125 
Q 49.265625 0.734375 44.1875 -0.34375 
Q 39.109375 -1.421875 33.890625 -1.421875 
Q 20.796875 -1.421875 13.15625 6.1875 
Q 5.515625 13.8125 5.515625 26.8125 
Q 5.515625 40.234375 12.765625 48.109375 
Q 20.015625 56 32.328125 56 
Q 43.359375 56 49.78125 48.890625 
Q 56.203125 41.796875 56.203125 29.59375 
z
M 47.21875 32.234375 
Q 47.125 39.59375 43.09375 43.984375 
Q 39.0625 48.390625 32.421875 48.390625 
Q 24.90625 48.390625 20.390625 44.140625 
Q 15.875 39.890625 15.1875 32.171875 
z
" id="DejaVuSans-101"/>
      <path d="M 52 44.1875 
Q 55.375 50.25 60.0625 53.125 
Q 64.75 56 71.09375 56 
Q 79.640625 56 84.28125 50.015625 
Q 88.921875 44.046875 88.921875 33.015625 
L 88.921875 0 
L 79.890625 0 
L 79.890625 32.71875 
Q 79.890625 40.578125 77.09375 44.375 
Q 74.3125 48.1875 68.609375 48.1875 
Q 61.625 48.1875 57.5625 43.546875 
Q 53.515625 38.921875 53.515625 30.90625 
L 53.515625 0 
L 44.484375 0 
L 44.484375 32.71875 
Q 44.484375 40.625 41.703125 44.40625 
Q 38.921875 48.1875 33.109375 48.1875 
Q 26.21875 48.1875 22.15625 43.53125 
Q 18.109375 38.875 18.109375 30.90625 
L 18.109375 0 
L 9.078125 0 
L 9.078125 54.6875 
L 18.109375 54.6875 
L 18.109375 46.1875 
Q 21.1875 51.21875 25.484375 53.609375 
Q 29.78125 56 35.6875 56 
Q 41.65625 56 45.828125 52.96875 
Q 50 49.953125 52 44.1875 
z
" id="DejaVuSans-109"/>
      <path d="M 18.109375 8.203125 
L 18.109375 -20.796875 
L 9.078125 -20.796875 
L 9.078125 54.6875 
L 18.109375 54.6875 
L 18.109375 46.390625 
Q 20.953125 51.265625 25.265625 53.625 
Q 29.59375 56 35.59375 56 
Q 45.5625 56 51.78125 48.09375 
Q 58.015625 40.1875 58.015625 27.296875 
Q 58.015625 14.40625 51.78125 6.484375 
Q 45.5625 -1.421875 35.59375 -1.421875 
Q 29.59375 -1.421875 25.265625 0.953125 
Q 20.953125 3.328125 18.109375 8.203125 
z
M 48.6875 27.296875 
Q 48.6875 37.203125 44.609375 42.84375 
Q 40.53125 48.484375 33.40625 48.484375 
Q 26.265625 48.484375 22.1875 42.84375 
Q 18.109375 37.203125 18.109375 27.296875 
Q 18.109375 17.390625 22.1875 11.75 
Q 26.265625 6.109375 33.40625 6.109375 
Q 40.53125 6.109375 44.609375 11.75 
Q 48.6875 17.390625 48.6875 27.296875 
z
" id="DejaVuSans-112"/>
      <path d="M 41.109375 46.296875 
Q 39.59375 47.171875 37.8125 47.578125 
Q 36.03125 48 33.890625 48 
Q 26.265625 48 22.1875 43.046875 
Q 18.109375 38.09375 18.109375 28.8125 
L 18.109375 0 
L 9.078125 0 
L 9.078125 54.6875 
L 18.109375 54.6875 
L 18.109375 46.1875 
Q 20.953125 51.171875 25.484375 53.578125 
Q 30.03125 56 36.53125 56 
Q 37.453125 56 38.578125 55.875 
Q 39.703125 55.765625 41.0625 55.515625 
z
" id="DejaVuSans-114"/>
      <path d="M 34.28125 27.484375 
Q 23.390625 27.484375 19.1875 25 
Q 14.984375 22.515625 14.984375 16.5 
Q 14.984375 11.71875 18.140625 8.90625 
Q 21.296875 6.109375 26.703125 6.109375 
Q 34.1875 6.109375 38.703125 11.40625 
Q 43.21875 16.703125 43.21875 25.484375 
L 43.21875 27.484375 
z
M 52.203125 31.203125 
L 52.203125 0 
L 43.21875 0 
L 43.21875 8.296875 
Q 40.140625 3.328125 35.546875 0.953125 
Q 30.953125 -1.421875 24.3125 -1.421875 
Q 15.921875 -1.421875 10.953125 3.296875 
Q 6 8.015625 6 15.921875 
Q 6 25.140625 12.171875 29.828125 
Q 18.359375 34.515625 30.609375 34.515625 
L 43.21875 34.515625 
L 43.21875 35.40625 
Q 43.21875 41.609375 39.140625 45 
Q 35.0625 48.390625 27.6875 48.390625 
Q 23 48.390625 18.546875 47.265625 
Q 14.109375 46.140625 10.015625 43.890625 
L 10.015625 52.203125 
Q 14.9375 54.109375 19.578125 55.046875 
Q 24.21875 56 28.609375 56 
Q 40.484375 56 46.34375 49.84375 
Q 52.203125 43.703125 52.203125 31.203125 
z
" id="DejaVuSans-97"/>
      <path d="M 8.5 21.578125 
L 8.5 54.6875 
L 17.484375 54.6875 
L 17.484375 21.921875 
Q 17.484375 14.15625 20.5 10.265625 
Q 23.53125 6.390625 29.59375 6.390625 
Q 36.859375 6.390625 41.078125 11.03125 
Q 45.3125 15.671875 45.3125 23.6875 
L 45.3125 54.6875 
L 54.296875 54.6875 
L 54.296875 0 
L 45.3125 0 
L 45.3125 8.40625 
Q 42.046875 3.421875 37.71875 1 
Q 33.40625 -1.421875 27.6875 -1.421875 
Q 18.265625 -1.421875 13.375 4.4375 
Q 8.5 10.296875 8.5 21.578125 
z
M 31.109375 56 
z
" id="DejaVuSans-117"/>
     </defs>
     <g transform="translate(18.818125 109.01875)rotate(-90)scale(0.1 -0.1)">
      <use xlink:href="#DejaVuSans-84"/>
      <use x="60.818359" xlink:href="#DejaVuSans-101"/>
      <use x="122.341797" xlink:href="#DejaVuSans-109"/>
      <use x="219.753906" xlink:href="#DejaVuSans-112"/>
      <use x="283.230469" xlink:href="#DejaVuSans-101"/>
      <use x="344.753906" xlink:href="#DejaVuSans-114"/>
      <use x="385.867188" xlink:href="#DejaVuSans-97"/>
      <use x="447.146484" xlink:href="#DejaVuSans-116"/>
      <use x="486.355469" xlink:href="#DejaVuSans-114"/>
      <use x="527.46875" xlink:href="#DejaVuSans-117"/>
      <use x="590.847656" xlink:href="#DejaVuSans-101"/>
     </g>
    </g>
   </g>
   <g id="line2d_17">
    <path clip-path="url(#p0f1dccfd9f)" d="M 46.64 76.4 
L 50.373838 74.291805 
L 54.107677 72.205101 
L 57.841515 70.161162 
L 61.575354 68.180824 
L 65.309192 66.284275 
L 69.04303 64.49085 
L 72.776869 62.81883 
L 76.510707 61.285263 
L 80.244545 59.90578 
L 83.978384 58.694446 
L 87.712222 57.663608 
L 91.446061 56.823777 
L 95.179899 56.183512 
L 98.913737 55.749342 
L 102.647576 55.525692 
L 106.381414 55.514843 
L 110.115253 55.716904 
L 113.849091 56.129817 
L 117.582929 56.749371 
L 121.316768 57.569251 
L 125.050606 58.581099 
L 128.784444 59.774599 
L 132.518283 61.137585 
L 136.252121 62.656161 
L 139.98596 64.314847 
L 143.719798 66.096734 
L 147.453636 67.983656 
L 151.187475 69.956377 
L 154.921313 71.994787 
L 158.655152 74.078105 
L 162.38899 76.185093 
L 166.122828 78.294273 
L 169.856667 80.384141 
L 173.590505 82.433393 
L 177.324343 84.421139 
L 181.058182 86.327115 
L 184.79202 88.13189 
L 188.525859 89.817065 
L 192.259697 91.365462 
L 195.993535 92.761296 
L 199.727374 93.990337 
L 203.461212 95.040055 
L 207.195051 95.89975 
L 210.928889 96.560657 
L 214.662727 97.016038 
L 218.396566 97.261253 
L 222.130404 97.2938 
L 225.864242 97.113348 
L 229.598081 96.721736 
L 233.331919 96.122958 
L 237.065758 95.323116 
L 240.799596 94.330365 
L 244.533434 93.154825 
L 248.267273 91.80848 
L 252.001111 90.305056 
L 255.734949 88.659878 
L 259.468788 86.889719 
L 263.202626 85.012623 
L 266.936465 83.047728 
L 270.670303 81.015063 
L 274.404141 78.93535 
L 278.13798 76.829791 
L 281.871818 74.71985 
L 285.605657 72.627038 
L 289.339495 70.572689 
L 293.073333 68.577745 
L 296.807172 66.662544 
L 300.54101 64.846611 
L 304.274848 63.148457 
L 308.008687 61.585394 
L 311.742525 60.173357 
L 315.476364 58.92674 
L 319.210202 57.858252 
L 322.94404 56.978785 
L 326.677879 56.297305 
L 330.411717 55.82076 
L 334.145556 55.554007 
L 337.879394 55.499765 
L 341.613232 55.658589 
L 345.347071 56.028858 
L 349.080909 56.606798 
L 352.814747 57.386517 
L 356.548586 58.360066 
L 360.282424 59.517522 
L 361 59.773039 
" style="fill:none;stroke:#b22222;stroke-linecap:square;stroke-width:1.5;"/>
    <defs>
     <path d="M 0 -3 
L -3 3 
L 3 3 
z
" id="m76f4a6f998" style="stroke:#b22222;stroke-linejoin:miter;stroke-width:0.25;"/>
    </defs>
    <g clip-path="url(#p0f1dccfd9f)">
     <use style="fill:#b22222;stroke:#b22222;stroke-linejoin:miter;stroke-width:0.25;" x="46.64" xlink:href="#m76f4a6f998" y="76.4"/>
     <use style="fill:#b22222;stroke:#b22222;stroke-linejoin:miter;stroke-width:0.25;" x="83.978384" xlink:href="#m76f4a6f998" y="58.694446"/>
     <use style="fill:#b22222;stroke:#b22222;stroke-linejoin:miter;stroke-width:0.25;" x="121.316768" xlink:href="#m76f4a6f998" y="57.569251"/>
     <use style="fill:#b22222;stroke:#b22222;stroke-linejoin:miter;stroke-width:0.25;" x="158.655152" xlink:href="#m76f4a6f998" y="74.078105"/>
     <use style="fill:#b22222;stroke:#b22222;stroke-linejoin:miter;stroke-width:0.25;" x="195.993535" xlink:href="#m76f4a6f998" y="92.761296"/>
     <use style="fill:#b22222;stroke:#b22222;stroke-linejoin:miter;stroke-width:0.25;" x="233.331919" xlink:href="#m76f4a6f998" y="96.122958"/>
     <use style="fill:#b22222;stroke:#b22222;stroke-linejoin:miter;stroke-width:0.25;" x="270.670303" xlink:href="#m76f4a6f998" y="81.015063"/>
     <use style="fill:#b22222;stroke:#b22222;stroke-linejoin:miter;stroke-width:0.25;" x="308.008687" xlink:href="#m76f4a6f998" y="61.585394"/>
     <use style="fill:#b22222;stroke:#b22222;stroke-linejoin:miter;stroke-width:0.25;" x="345.347071" xlink:href="#m76f4a6f998" y="56.028858"/>
     <use style="fill:#b22222;stroke:#b22222;stroke-linejoin:miter;stroke-width:0.25;" x="382.685455" xlink:href="#m76f4a6f998" y="69.548871"/>
    </g>
   </g>
   <g id="line2d_18">
    <path clip-path="url(#p0f1dccfd9f)" d="M 46.64 55.493333 
L 49.627071 55.561556 
L 52.614141 55.765778 
L 55.601212 56.104668 
L 58.588283 56.576013 
L 61.575354 57.176737 
L 64.562424 57.902919 
L 67.549495 58.749821 
L 70.536566 59.711915 
L 73.523636 60.782921 
L 76.510707 61.955851 
L 79.497778 63.22305 
L 82.484848 64.576246 
L 85.471919 66.006608 
L 88.45899 67.504802 
L 91.446061 69.06105 
L 94.433131 70.665194 
L 97.420202 72.306766 
L 100.407273 73.975052 
L 103.394343 75.659165 
L 106.381414 77.348112 
L 109.368485 79.030871 
L 112.355556 80.696461 
L 115.342626 82.334009 
L 118.329697 83.932831 
L 121.316768 85.48249 
L 124.303838 86.972873 
L 127.290909 88.394253 
L 130.27798 89.737355 
L 133.265051 90.993411 
L 136.252121 92.154225 
L 139.239192 93.212221 
L 142.226263 94.160493 
L 145.213333 94.992854 
L 148.200404 95.70387 
L 151.187475 96.288902 
L 154.174545 96.744131 
L 157.161616 97.066586 
L 160.148687 97.254163 
L 163.135758 97.305637 
L 166.122828 97.220673 
L 169.109899 96.999826 
L 172.09697 96.644535 
L 175.08404 96.157121 
L 178.071111 95.540764 
L 181.058182 94.799486 
L 184.045253 93.938127 
L 187.032323 92.962307 
L 190.019394 91.878394 
L 193.006465 90.693464 
L 195.993535 89.415249 
L 198.980606 88.052091 
L 201.967677 86.612887 
L 204.954747 85.10703 
L 207.941818 83.544347 
L 210.928889 81.935037 
L 213.91596 80.289604 
L 216.90303 78.618786 
L 219.890101 76.933486 
L 222.877172 75.244705 
L 225.864242 73.563464 
L 228.851313 71.900736 
L 231.838384 70.267371 
L 234.825455 68.67403 
L 237.812525 67.131112 
L 240.799596 65.648687 
L 243.786667 64.236428 
L 246.773737 62.903554 
L 249.760808 61.658763 
L 252.747879 60.51018 
L 255.734949 59.465299 
L 258.72202 58.530941 
L 261.709091 57.713203 
L 264.696162 57.017423 
L 267.683232 56.448141 
L 270.670303 56.009073 
L 273.657374 55.703084 
L 276.644444 55.532171 
L 279.631515 55.49745 
L 282.618586 55.599147 
L 285.605657 55.836599 
L 288.592727 56.208255 
L 291.579798 56.711691 
L 294.566869 57.343621 
L 297.553939 58.099919 
L 300.54101 58.975652 
L 303.528081 59.965102 
L 306.515152 61.061814 
L 309.502222 62.258628 
L 312.489293 63.547734 
L 315.476364 64.920719 
L 318.463434 66.368623 
L 321.450505 67.881995 
L 324.437576 69.450959 
L 327.424646 71.065276 
L 330.411717 72.714409 
L 333.398788 74.387595 
L 336.385859 76.073915 
L 339.372929 77.762364 
L 342.36 79.441921 
" style="fill:none;stroke:#228b22;stroke-linecap:square;stroke-width:1.5;"/>
    <defs>
     <path d="M 0 3 
C 0.795609 3 1.55874 2.683901 2.12132 2.12132 
C 2.683901 1.55874 3 0.795609 3 0 
C 3 -0.795609 2.683901 -1.55874 2.12132 -2.12132 
C 1.55874 -2.683901 0.795609 -3 0 -3 
C -0.795609 -3 -1.55874 -2.683901 -2.12132 -2.12132 
C -2.683901 -1.55874 -3 -0.795609 -3 0 
C -3 0.795609 -2.683901 1.55874 -2.12132 2.12132 
C -1.55874 2.683901 -0.795609 3 0 3 
z
" id="m83ef2e1763" style="stroke:#228b22;stroke-width:0.25;"/>
    </defs>
    <g clip-path="url(#p0f1dccfd9f)">
     <use style="fill:#228b22;stroke:#228b22;stroke-width:0.25;" x="46.64" xlink:href="#m83ef2e1763" y="55.493333"/>
     <use style="fill:#228b22;stroke:#228b22;stroke-width:0.25;" x="76.510707" xlink:href="#m83ef2e1763" y="61.955851"/>
     <use style="fill:#228b22;stroke:#228b22;stroke-width:0.25;" x="106.381414" xlink:href="#m83ef2e1763" y="77.348112"/>
     <use style="fill:#228b22;stroke:#228b22;stroke-width:0.25;" x="136.252121" xlink:href="#m83ef2e1763" y="92.154225"/>
     <use style="fill:#228b22;stroke:#228b22;stroke-width:0.25;" x="166.122828" xlink:href="#m83ef2e1763" y="97.220673"/>
     <use style="fill:#228b22;stroke:#228b22;stroke-width:0.25;" x="195.993535" xlink:href="#m83ef2e1763" y="89.415249"/>
     <use style="fill:#228b22;stroke:#228b22;stroke-width:0.25;" x="225.864242" xlink:href="#m83ef2e1763" y="73.563464"/>
     <use style="fill:#228b22;stroke:#228b22;stroke-width:0.25;" x="255.734949" xlink:href="#m83ef2e1763" y="59.465299"/>
     <use style="fill:#228b22;stroke:#228b22;stroke-width:0.25;" x="285.605657" xlink:href="#m83ef2e1763" y="55.836599"/>
     <use style="fill:#228b22;stroke:#228b22;stroke-width:0.25;" x="315.476364" xlink:href="#m83ef2e1763" y="64.920719"/>
    </g>
   </g>
   <g id="line2d_19">
    <path clip-path="url(#p0f1dccfd9f)" d="M 46.64 55.493333 
L 51.120606 53.453361 
L 55.601212 51.57088 
L 60.081818 49.86583 
L 64.562424 48.356837 
L 69.04303 47.061012 
L 73.523636 45.993769 
L 78.004242 45.168651 
L 82.484848 44.597177 
L 86.965455 44.288702 
L 91.446061 44.250297 
L 95.926667 44.486658 
L 100.407273 45.000022 
L 104.887879 45.79012 
L 109.368485 46.854144 
L 113.849091 48.186742 
L 118.329697 49.780037 
L 122.810303 51.623671 
L 127.290909 53.704869 
L 131.771515 56.008536 
L 136.252121 58.517363 
L 140.732727 61.21197 
L 145.213333 64.07106 
L 149.693939 67.071594 
L 154.174545 70.188992 
L 158.655152 73.397337 
L 163.135758 76.669607 
L 167.616364 79.977909 
L 172.09697 83.293731 
L 176.577576 86.588198 
L 181.058182 89.83233 
L 185.538788 92.997314 
L 190.019394 96.054766 
L 194.5 98.976995 
L 198.980606 101.737264 
L 203.461212 104.310042 
L 207.941818 106.671246 
L 212.422424 108.798476 
L 216.90303 110.671228 
L 221.383636 112.2711 
L 225.864242 113.58197 
L 230.344848 114.590162 
L 234.825455 115.28459 
L 239.306061 115.65687 
L 243.786667 115.70142 
L 248.267273 115.415525 
L 252.747879 114.79938 
L 257.228485 113.856107 
L 261.709091 112.591742 
L 266.189697 111.0152 
L 270.670303 109.138206 
L 275.150909 106.975207 
L 279.631515 104.543252 
L 284.112121 101.861855 
L 288.592727 98.952827 
L 293.073333 95.840093 
L 297.553939 92.549482 
L 302.034545 89.108504 
L 306.515152 85.54611 
L 310.995758 81.892433 
L 315.476364 78.178527 
L 319.95697 74.436086 
L 324.437576 70.697162 
L 328.918182 66.993881 
L 333.398788 63.35815 
L 337.879394 59.821375 
L 342.36 56.414173 
L 346.840606 53.166099 
L 351.321212 50.105374 
L 355.801818 47.258636 
L 360.282424 44.650693 
L 361 44.274914 
" style="fill:none;stroke:#00008b;stroke-linecap:square;stroke-width:1.5;"/>
    <defs>
     <path d="M -3 3 
L 3 3 
L 3 -3 
L -3 -3 
z
" id="m5d560248e0" style="stroke:#00008b;stroke-linejoin:miter;stroke-width:0.25;"/>
    </defs>
    <g clip-path="url(#p0f1dccfd9f)">
     <use style="fill:#00008b;stroke:#00008b;stroke-linejoin:miter;stroke-width:0.25;" x="46.64" xlink:href="#m5d560248e0" y="55.493333"/>
     <use style="fill:#00008b;stroke:#00008b;stroke-linejoin:miter;stroke-width:0.25;" x="91.446061" xlink:href="#m5d560248e0" y="44.250297"/>
     <use style="fill:#00008b;stroke:#00008b;stroke-linejoin:miter;stroke-width:0.25;" x="136.252121" xlink:href="#m5d560248e0" y="58.517363"/>
     <use style="fill:#00008b;stroke:#00008b;stroke-linejoin:miter;stroke-width:0.25;" x="181.058182" xlink:href="#m5d560248e0" y="89.83233"/>
     <use style="fill:#00008b;stroke:#00008b;stroke-linejoin:miter;stroke-width:0.25;" x="225.864242" xlink:href="#m5d560248e0" y="113.58197"/>
     <use style="fill:#00008b;stroke:#00008b;stroke-linejoin:miter;stroke-width:0.25;" x="270.670303" xlink:href="#m5d560248e0" y="109.138206"/>
     <use style="fill:#00008b;stroke:#00008b;stroke-linejoin:miter;stroke-width:0.25;" x="315.476364" xlink:href="#m5d560248e0" y="78.178527"/>
     <use style="fill:#00008b;stroke:#00008b;stroke-linejoin:miter;stroke-width:0.25;" x="360.282424" xlink:href="#m5d560248e0" y="44.650693"/>
     <use style="fill:#00008b;stroke:#00008b;stroke-linejoin:miter;stroke-width:0.25;" x="405.088485" xlink:href="#m5d560248e0" y="35.465457"/>
     <use style="fill:#00008b;stroke:#00008b;stroke-linejoin:miter;stroke-width:0.25;" x="449.894545" xlink:href="#m5d560248e0" y="58.06959"/>
    </g>
   </g>
   <g id="patch_3">
    <path d="M 46.64 139.12 
L 46.64 13.68 
" style="fill:none;stroke:#000000;stroke-linecap:square;stroke-linejoin:miter;stroke-width:0.8;"/>
   </g>
   <g id="patch_4">
    <path d="M 342.36 139.12 
L 342.36 13.68 
" style="fill:none;stroke:#000000;stroke-linecap:square;stroke-linejoin:miter;stroke-width:0.8;"/>
   </g>
   <g id="patch_5">
    <path d="M 46.64 139.12 
L 342.36 139.12 
" style="fill:none;stroke:#000000;stroke-linecap:square;stroke-linejoin:miter;stroke-width:0.8;"/>
   </g>
   <g id="patch_6">
    <path d="M 46.64 13.68 
L 342.36 13.68 
" style="fill:none;stroke:#000000;stroke-linecap:square;stroke-linejoin:miter;stroke-width:0.8;"/>
   </g>
   <g id="text_19">
    <!-- Sample Figure -->
    <defs>
     <path d="M 53.515625 70.515625 
L 53.515625 60.890625 
Q 47.90625 63.578125 42.921875 64.890625 
Q 37.9375 66.21875 33.296875 66.21875 
Q 25.25 66.21875 20.875 63.09375 
Q 16.5 59.96875 16.5 54.203125 
Q 16.5 49.359375 19.40625 46.890625 
Q 22.3125 44.4375 30.421875 42.921875 
L 36.375 41.703125 
Q 47.40625 39.59375 52.65625 34.296875 
Q 57.90625 29 57.90625 20.125 
Q 57.90625 9.515625 50.796875 4.046875 
Q 43.703125 -1.421875 29.984375 -1.421875 
Q 24.8125 -1.421875 18.96875 -0.25 
Q 13.140625 0.921875 6.890625 3.21875 
L 6.890625 13.375 
Q 12.890625 10.015625 18.65625 8.296875 
Q 24.421875 6.59375 29.984375 6.59375 
Q 38.421875 6.59375 43.015625 9.90625 
Q 47.609375 13.234375 47.609375 19.390625 
Q 47.609375 24.75 44.3125 27.78125 
Q 41.015625 30.8125 33.5 32.328125 
L 27.484375 33.5 
Q 16.453125 35.6875 11.515625 40.375 
Q 6.59375 45.0625 6.59375 53.421875 
Q 6.59375 63.09375 13.40625 68.65625 
Q 20.21875 74.21875 32.171875 74.21875 
Q 37.3125 74.21875 42.625 73.28125 
Q 47.953125 72.359375 53.515625 70.515625 
z
" id="DejaVuSans-83"/>
     <path d="M 9.421875 75.984375 
L 18.40625 75.984375 
L 18.40625 0 
L 9.421875 0 
z
" id="DejaVuSans-108"/>
     <path id="DejaVuSans-32"/>
     <path d="M 9.8125 72.90625 
L 51.703125 72.90625 
L 51.703125 64.59375 
L 19.671875 64.59375 
L 19.671875 43.109375 
L 48.578125 43.109375 
L 48.578125 34.8125 
L 19.671875 34.8125 
L 19.671875 0 
L 9.8125 0 
z
" id="DejaVuSans-70"/>
     <path d="M 45.40625 27.984375 
Q 45.40625 37.75 41.375 43.109375 
Q 37.359375 48.484375 30.078125 48.484375 
Q 22.859375 48.484375 18.828125 43.109375 
Q 14.796875 37.75 14.796875 27.984375 
Q 14.796875 18.265625 18.828125 12.890625 
Q 22.859375 7.515625 30.078125 7.515625 
Q 37.359375 7.515625 41.375 12.890625 
Q 45.40625 18.265625 45.40625 27.984375 
z
M 54.390625 6.78125 
Q 54.390625 -7.171875 48.1875 -13.984375 
Q 42 -20.796875 29.203125 -20.796875 
Q 24.46875 -20.796875 20.265625 -20.09375 
Q 16.0625 -19.390625 12.109375 -17.921875 
L 12.109375 -9.1875 
Q 16.0625 -11.328125 19.921875 -12.34375 
Q 23.78125 -13.375 27.78125 -13.375 
Q 36.625 -13.375 41.015625 -8.765625 
Q 45.40625 -4.15625 45.40625 5.171875 
L 45.40625 9.625 
Q 42.625 4.78125 38.28125 2.390625 
Q 33.9375 0 27.875 0 
Q 17.828125 0 11.671875 7.65625 
Q 5.515625 15.328125 5.515625 27.984375 
Q 5.515625 40.671875 11.671875 48.328125 
Q 17.828125 56 27.875 56 
Q 33.9375 56 38.28125 53.609375 
Q 42.625 51.21875 45.40625 46.390625 
L 45.40625 54.6875 
L 54.390625 54.6875 
z
" id="DejaVuSans-103"/>
    </defs>
    <g transform="translate(155.544062 7.68)scale(0.108 -0.108)">
     <use xlink:href="#DejaVuSans-83"/>
     <use x="63.476562" xlink:href="#DejaVuSans-97"/>
     <use x="124.755859" xlink:href="#DejaVuSans-109"/>
     <use x="222.167969" xlink:href="#DejaVuSans-112"/>
     <use x="285.644531" xlink:href="#DejaVuSans-108"/>
     <use x="313.427734" xlink:href="#DejaVuSans-101"/>
     <use x="374.951172" xlink:href="#DejaVuSans-32"/>
     <use x="406.738281" xlink:href="#DejaVuSans-70"/>
     <use x="464.148438" xlink:href="#DejaVuSans-105"/>
     <use x="491.931641" xlink:href="#DejaVuSans-103"/>
     <use x="555.408203" xlink:href="#DejaVuSans-117"/>
     <use x="618.787109" xlink:href="#DejaVuSans-114"/>
     <use x="659.869141" xlink:href="#DejaVuSans-101"/>
    </g>
   </g>
   <g id="legend_1">
    <g id="line2d_20">
     <path d="M 54.74 99.577656 
L 72.74 99.577656 
" style="fill:none;stroke:#b22222;stroke-linecap:square;stroke-width:1.5;"/>
    </g>
    <g id="line2d_21">
     <g>
      <use style="fill:#b22222;stroke:#b22222;stroke-linejoin:miter;stroke-width:0.25;" x="63.74" xlink:href="#m76f4a6f998" y="99.577656"/>
     </g>
    </g>
    <g id="text_20">
     <!-- L1 -->
     <defs>
      <path d="M 9.8125 72.90625 
L 19.671875 72.90625 
L 19.671875 8.296875 
L 55.171875 8.296875 
L 55.171875 0 
L 9.8125 0 
z
" id="DejaVuSans-76"/>
     </defs>
     <g transform="translate(79.94 102.727656)scale(0.09 -0.09)">
      <use xlink:href="#DejaVuSans-76"/>
      <use x="55.712891" xlink:href="#DejaVuSans-49"/>
     </g>
    </g>
    <g id="line2d_22">
     <path d="M 54.74 112.787969 
L 72.74 112.787969 
" style="fill:none;stroke:#228b22;stroke-linecap:square;stroke-width:1.5;"/>
    </g>
    <g id="line2d_23">
     <g>
      <use style="fill:#228b22;stroke:#228b22;stroke-width:0.25;" x="63.74" xlink:href="#m83ef2e1763" y="112.787969"/>
     </g>
    </g>
    <g id="text_21">
     <!-- L2 -->
     <g transform="translate(79.94 115.937969)scale(0.09 -0.09)">
      <use xlink:href="#DejaVuSans-76"/>
      <use x="55.712891" xlink:href="#DejaVuSans-50"/>
     </g>
    </g>
    <g id="line2d_24">
     <path d="M 54.74 125.998281 
L 72.74 125.998281 
" style="fill:none;stroke:#00008b;stroke-linecap:square;stroke-width:1.5;"/>
    </g>
    <g id="line2d_25">
     <g>
      <use style="fill:#00008b;stroke:#00008b;stroke-linejoin:miter;stroke-width:0.25;" x="63.74" xlink:href="#m5d560248e0" y="125.998281"/>
     </g>
    </g>
    <g id="text_22">
     <!-- L3 -->
     <g transform="translate(79.94 129.148281)scale(0.09 -0.09)">
      <use xlink:href="#DejaVuSans-76"/>
      <use x="55.712891" xlink:href="#DejaVuSans-51"/>
     </g>
    </g>
   </g>
  </g>
 </g>
 <defs>
  <clipPath id="p0f1dccfd9f">
   <rect height="125.44" width="295.72" x="46.64" y="13.68"/>
  </clipPath>
 </defs>
</svg>
